<?xml version="1.0" encoding="UTF-8"?>
<svg id="Layer_2" data-name="Layer 2" xmlns="http://www.w3.org/2000/svg" viewBox="0 0 858.3 641.45">
  <defs>
    <style>
      .cls-1 {
        fill: #fdca6a;
      }
    </style>
  </defs>
  <g id="_ÎÓÈ_1" data-name="—ÎÓÈ_1">
    <path class="cls-1" d="M436.39,37.85c-29.59-13.13-52.95-4.51-72.73,20.02-21.92,27.75-36.16,60.75-49.43,93.32-10.02,25.34-19.03,51.28-27.36,77.22-8.39,33.36-15.44,68.12-21.54,101.99-4.1,22.12-10.98,43.39-12.13,65.77-2.46,35.41,3.09,71.67,17.18,104.32,24.34,55.71,49.63,67.38,108.08,76.5,35.46,5.52,71.9,9.85,106.4-.45,18.59-5.7,35.08-14.99,47.13-29.52,16.83-20.7,21.9-48.81,25.46-75.7,2.78-22.26,5.31-45.79,5.39-67.8.42-29.68-5.7-60.33-10.76-89.64-10.68-60.43-22.01-121.32-45.75-178-13.26-30.93-29.32-62.95-59.85-78.72-31.06-15.79-54.83-3.53-79.41,19.23-84.06,78.36-104.8,199.11-113.54,309.1-1.24,15.14-2.2,30.24-2.13,45.24.03,17.7,1.59,35.45,5.96,52.58,12.27,49.13,53.97,89.06,102.87,102.12,46.06,12.69,98.11,5.39,136.9-22.81,22.09-15.98,36.42-37.82,45.12-64.03,5.09-14.89,8.9-30.92,10.53-46.69,2.42-20.38,2.31-40.93,1.25-61.46-.49-11-.58-23.33-.75-34.41-.62-38.25-3.25-78.64-6.35-116.78-3.6-34.51-5.38-70.99-15.21-104.37-14.07-46.54-50.64-79.79-95.32-97.01h0ZM436.39,37.85c45.19,17.25,84.33,48.76,105.19,93.12,15.15,32.5,24.31,68.66,34.53,102.95,9.6,34.85,18.16,70.38,23.8,106.11,1.81,11.6,3.74,24.69,4.6,36.41,1.51,20.67.49,41.31-.42,62.07-.62,10.47-1.77,21.5-3.36,31.89-5.81,33.06-15.75,64.49-35.17,92.98-13.34,19.01-30.6,35.04-50.25,47.22-34.32,21.47-75.27,31.74-115.56,30.78-75.83-1.32-146.89-43.99-179.27-113.34-10.47-22.39-16.04-46.89-18.02-71.42-1.45-16.84-1.3-34.02-.45-50.76,7.96-130.19,30.68-272.93,131.16-366.24C372.57,2.43,418.2-12.87,469,12.54c37.53,18.65,61.85,55.37,78.41,92.46,28.64,63.43,41.99,132.22,53.9,200.21,2.47,14.24,5.98,33.48,7.9,47.73,6.4,41.32,3.2,83.79-2.18,124.81-4.44,35.47-12.88,72.5-36.4,101-43.05,51.66-113.35,59.58-175.65,51.1-54.56-7.16-109.1-15.61-144.09-63.18-37.84-51.36-52.7-117.44-47.1-180.4,2.41-26.97,7.56-53.55,15.83-79.14,8.31-27.12,18.15-53.82,29.54-79.79,1.49-3.28,3.6-8.41,5.16-11.63,5.61-10.4,11.95-21.96,17.86-32.07,16.08-27.75,33.21-54.92,51.49-81.24,13.88-19.49,27.88-39.42,46.05-55.19,20.49-17.49,42.09-20.39,66.67-9.35h0Z"/>
    <path class="cls-1" d="M1.44,472.8c34.06-31.25,70.4-59.84,107.55-87.22,55.79-40.94,114.05-78.39,174.87-111.59,160.18-88.9,341.01-140.02,524.22-144.87,0,0,6.25-.14,6.25-.14,39.28-.8,58.85,47.28,30.63,74.18-37.65,35.99-79.1,68.67-122.89,96.85-26.83,17.13-56.1,33.46-84.8,47.14-17.13,8.02-36.42,16.39-54.14,22.73-3.34,1.18-5.51-3.32-2.69-5.24,83.22-55.7,160.87-120.24,227.67-194.96,0,0,4.49,9.01,4.49,9.01-180.19,17.22-356.18,69.49-518.94,148.23-98.51,46.22-194,98.42-289.25,151.1-1.43.8-3.23.28-4.03-1.15-.68-1.22-.4-2.71.58-3.61,0,0,.49-.45.49-.45h0Z"/>
    <path class="cls-1" d="M509.26,362.09c.32-.04.82-.06,1.17-.03,1.15-.06,2.37-.52,3.56-.69,4.86-1.38,10.53-3.47,15.37-5.51,13.99-5.82,27.43-12.56,41.16-19.68,44.24-23.2,87.68-49.04,130.22-75.54,21.29-13.49,42.76-26.79,63.01-41.82-8.69,9.2-18.03,17.79-27.3,26.39-56.88,51.31-114.42,101.64-177.65,145.36-5.54,3.64-11.6,7.56-17.42,10.79-5.33,3.04-11.49,6.17-17.5,8.25-1.79.53-3.89,1.22-5.7,1.68-13.37,3.66-27.17-4.21-30.82-17.58-4.23-14.87,6.56-30.32,21.92-31.63h0Z"/>
  </g>
</svg>
